<svg width="20" height="20" viewBox="0 0 20 20" fill="none" xmlns="http://www.w3.org/2000/svg">
<g clip-path="url(#clip0_1_823)">
<path d="M10.8848 7.24603C10.6261 7.24603 10.4164 7.45573 10.4164 7.71442V16.5669C10.4164 16.8254 10.6261 17.0352 10.8848 17.0352C11.1436 17.0352 11.3532 16.8254 11.3532 16.5669V7.71442C11.3532 7.45573 11.1436 7.24603 10.8848 7.24603ZM5.35791 7.24603C5.09922 7.24603 4.88953 7.45573 4.88953 7.71442V16.5669C4.88953 16.8254 5.09922 17.0352 5.35791 17.0352C5.61664 17.0352 5.82629 16.8254 5.82629 16.5669V7.71442C5.82629 7.45573 5.61664 7.24603 5.35791 7.24603Z" fill="#E16262"/>
<path d="M1.33015 5.95413V17.4941C1.33015 18.1762 1.58027 18.8167 2.01718 19.2763C2.23231 19.5043 2.49167 19.6861 2.7794 19.8105C3.06714 19.9349 3.37722 19.9994 3.69071 20H12.5527C12.8662 19.9994 13.1763 19.935 13.464 19.8106C13.7518 19.6861 14.0111 19.5043 14.2262 19.2763C14.6632 18.8167 14.9133 18.1762 14.9133 17.4941V5.95413C15.7818 5.72359 16.3446 4.88453 16.2284 3.99334C16.112 3.10229 15.3529 2.43578 14.4542 2.43559H12.0561V1.85011C12.0575 1.60638 12.0104 1.36481 11.9176 1.13943C11.8248 0.914043 11.6882 0.709335 11.5157 0.537188C11.3431 0.365058 11.138 0.228932 10.9124 0.136715C10.6867 0.0444971 10.445 -0.00197413 10.2013 -3.20775e-07H6.04218C5.79843 -0.00198035 5.55671 0.0444878 5.33107 0.136706C5.10542 0.228923 4.90035 0.365053 4.72775 0.537188C4.55521 0.709335 4.41858 0.914043 4.3258 1.13943C4.23302 1.36481 4.18594 1.60638 4.18729 1.85011V2.43559H1.78926C0.890527 2.43578 0.131419 3.10229 0.0150257 3.99334C-0.101133 4.88453 0.461629 5.72359 1.33015 5.95413ZM12.5527 19.0632H3.69075C2.88991 19.0632 2.26692 18.3752 2.26692 17.4941V5.9953H13.9765V17.4941C13.9765 18.3753 13.3535 19.0632 12.5527 19.0632ZM5.12405 1.85011C5.12252 1.72936 5.14527 1.60952 5.19094 1.49772C5.2366 1.38593 5.30427 1.28444 5.38991 1.19929C5.47552 1.1141 5.57737 1.04696 5.68941 1.00187C5.80146 0.956769 5.92142 0.934632 6.04218 0.936766H10.2013C10.322 0.934632 10.442 0.956769 10.554 1.00187C10.6661 1.04696 10.7679 1.1141 10.8535 1.19929C10.9392 1.28444 11.0069 1.38592 11.0525 1.49772C11.0982 1.60952 11.1209 1.72936 11.1194 1.85011V2.43559H5.12405V1.85011ZM1.78926 3.37236H14.4543C14.9199 3.37236 15.2974 3.74983 15.2974 4.21545C15.2974 4.68107 14.9199 5.05854 14.4543 5.05854H1.78921C1.32359 5.05854 0.946124 4.68107 0.946124 4.21545C0.946124 3.74983 1.32364 3.37236 1.78926 3.37236Z" fill="#E16262"/>
<path d="M8.1217 7.24603C7.86302 7.24603 7.65332 7.45573 7.65332 7.71442V16.5669C7.65332 16.8254 7.86302 17.0352 8.1217 17.0352C8.38044 17.0352 8.59009 16.8254 8.59009 16.5669V7.71442C8.59009 7.45573 8.38044 7.24603 8.1217 7.24603Z" fill="#E16262"/>
</g>
<defs>
<clipPath id="clip0_1_823">
<rect width="20" height="20" fill="white"/>
</clipPath>
</defs>
</svg>
