<svg width="192" height="192" viewBox="0 0 192 192" fill="none" xmlns="http://www.w3.org/2000/svg">
<g clip-path="url(#clip0_1_732)">
<path d="M0.607268 17.6126L13.4123 40.0199C13.6262 40.3946 13.9136 40.7221 14.2573 40.9828C14.6011 41.2435 14.994 41.432 15.4124 41.5369L27.3589 44.5237L68.3321 85.4965L72.8595 80.9705L31.2447 39.3575C30.8354 38.9469 30.3219 38.6555 29.7594 38.5147L18.2809 35.6348L7.37877 16.546L16.7255 7.19896L35.822 18.1118L38.7033 29.5904C38.8433 30.1537 39.1342 30.6681 39.5447 31.0784L81.1594 72.6931L85.6851 68.1658L44.7122 27.1926L41.7254 15.2528C41.6206 14.8338 41.4322 14.4403 41.1715 14.0959C40.9108 13.7515 40.5833 13.4634 40.2085 13.2487L17.7998 0.444986C17.1913 0.0990839 16.4863 -0.0378661 15.7926 0.0551041C15.0988 0.148074 14.4547 0.465841 13.9588 0.959751L1.15541 13.7648C0.654546 14.2572 0.329538 14.9007 0.230484 15.596C0.131429 16.2913 0.263827 16.9999 0.607268 17.6126ZM133.693 63.0882L63.2701 133.512L58.7427 128.985L129.167 58.5625L133.693 63.0882ZM50.9447 136.004C50.6602 135.53 50.2579 135.138 49.777 134.866C49.296 134.594 48.7528 134.451 48.2003 134.451H28.9942C28.4419 134.451 27.899 134.594 27.4183 134.866C26.9377 135.138 26.5357 135.53 26.2515 136.004L16.6476 152.008C16.3484 152.506 16.1904 153.076 16.1904 153.657C16.1904 154.238 16.3484 154.808 16.6476 155.306L26.2515 171.311C26.5359 171.784 26.9379 172.176 27.4185 172.448C27.8991 172.72 28.4419 172.863 28.9942 172.863H48.2003C48.7527 172.863 49.2957 172.72 49.7766 172.448C50.2574 172.176 50.6597 171.784 50.9444 171.311L60.5469 155.306C60.8461 154.808 61.0041 154.238 61.0041 153.657C61.0041 153.076 60.8461 152.506 60.5469 152.008L50.9447 136.004ZM46.3897 166.461H30.8062L23.1238 153.658L30.8065 140.853H46.3897L54.0721 153.658L46.3897 166.461Z" fill="#45A9EA" fill-opacity="0.1"/>
<path d="M153.835 76.8318C174.977 76.9029 192.175 59.8213 192.246 38.6792C192.256 35.4615 191.861 32.2552 191.07 29.1363C190.643 27.4204 188.907 26.3761 187.191 26.8028C186.628 26.9437 186.113 27.2344 185.703 27.6443L165.776 47.5573L149.966 42.2886L144.694 26.4829L164.62 6.5527C165.021 6.15129 165.309 5.6504 165.453 5.10139C165.596 4.55237 165.592 3.97496 165.439 3.42835C165.286 2.88173 164.991 2.38556 164.583 1.99069C164.176 1.59582 163.67 1.31645 163.119 1.18121C142.616 -4.01094 121.787 8.40006 116.595 28.9017C115.806 32.012 115.413 35.2094 115.423 38.4183C115.431 40.9388 115.691 43.4513 116.202 45.9189L46.0974 116.022C43.6299 115.513 41.1176 115.253 38.5981 115.244C17.3825 115.244 0.18457 132.442 0.18457 153.658C0.18457 174.872 17.3825 192.069 38.5981 192.069C59.8124 192.069 77.01 174.871 77.01 153.658C77.0021 151.138 76.7413 148.625 76.2316 146.157L93.0149 129.374L100.355 136.714C100.955 137.314 101.769 137.651 102.618 137.651C103.467 137.651 104.282 137.314 104.882 136.714L106.482 135.113C107.886 133.718 110.155 133.718 111.558 135.113C112.961 136.511 112.963 138.781 111.565 140.184L111.558 140.19L109.958 141.79C108.709 143.04 108.709 145.067 109.958 146.316L148.144 184.501C158.187 194.637 174.545 194.711 184.681 184.667C194.815 174.624 194.889 158.265 184.845 148.13C184.791 148.075 184.736 148.02 184.681 147.964L146.496 109.78C145.246 108.53 143.219 108.53 141.97 109.78L140.37 111.38C138.965 112.776 136.697 112.776 135.292 111.38C133.891 109.982 133.887 107.712 135.285 106.31C135.288 106.308 135.291 106.307 135.292 106.304L136.893 104.702C138.143 103.453 138.143 101.426 136.893 100.177L129.553 92.8367L146.336 76.0534C148.804 76.5632 151.316 76.8241 153.836 76.8321L153.835 76.8318ZM166.412 185.668C164.087 185.664 161.781 185.244 159.604 184.426L184.604 159.425C188.377 169.461 183.301 180.654 173.265 184.426C171.074 185.25 168.753 185.67 166.412 185.668ZM130.148 102.472C126.603 106.7 127.159 113.003 131.387 116.546C135.103 119.66 140.52 119.658 144.232 116.537L180.155 152.492C180.545 152.883 180.909 153.295 181.262 153.714L153.893 181.083C153.469 180.732 153.061 180.362 152.67 179.975L116.719 144.022C120.264 139.794 119.708 133.491 115.48 129.948C111.764 126.832 106.346 126.836 102.634 129.955L97.5129 124.834L125.026 97.3624L130.148 102.472ZM143.074 70.2767L70.4573 142.879C70.0659 143.27 69.7823 143.755 69.6342 144.288C69.486 144.821 69.4783 145.384 69.6118 145.921C74.0033 163.167 63.5819 180.709 46.3341 185.099C29.0876 189.491 11.5461 179.069 7.15429 161.821C2.76413 144.575 13.1852 127.033 30.4333 122.642C35.6505 121.314 41.117 121.314 46.3341 122.642C46.871 122.773 47.4326 122.765 47.9651 122.617C48.4977 122.469 48.9834 122.187 49.3758 121.798L121.976 49.1943C122.367 48.8034 122.65 48.3178 122.797 47.7848C122.945 47.2519 122.951 46.6899 122.817 46.1535C118.455 29.1087 128.737 11.7553 145.783 7.39278C149.004 6.56898 152.335 6.25436 155.653 6.46033L138.768 23.3529C138.347 23.7727 138.052 24.3013 137.915 24.8795C137.779 25.4577 137.806 26.0625 137.993 26.6262L144.395 45.8336C144.552 46.3048 144.818 46.7329 145.169 47.0839C145.521 47.4349 145.95 47.6994 146.421 47.8563L165.628 54.2587C166.192 54.4464 166.797 54.4736 167.375 54.3373C167.953 54.201 168.481 53.9066 168.902 53.487L185.788 36.6012C185.826 37.2062 185.845 37.8121 185.846 38.4183C185.935 56.0076 171.75 70.3384 154.161 70.4294C151.442 70.4427 148.733 70.1081 146.098 69.4339C145.562 69.2997 145 69.3067 144.467 69.4542C143.934 69.6016 143.448 69.8845 143.057 70.2754H143.074L143.074 70.2767Z" fill="#45A9EA" fill-opacity="0.1"/>
<path d="M165.705 160.996L161.178 165.523L129.168 133.514L133.694 128.986L165.705 160.996Z" fill="#45A9EA" fill-opacity="0.1"/>
</g>
<defs>
<clipPath id="clip0_1_732">
<rect width="192" height="192" fill="white"/>
</clipPath>
</defs>
</svg>
