<svg width="20" height="20" viewBox="0 0 20 20" fill="none" xmlns="http://www.w3.org/2000/svg">
<g clip-path="url(#clip0_1_819)">
<path d="M18.4592 12.5141C18.1841 12.5141 17.9611 12.737 17.9611 13.0122V17.4348C17.9601 18.2597 17.2918 18.9283 16.4668 18.9291H2.49052C1.66551 18.9283 0.997203 18.2597 0.996207 17.4348V4.45469C0.997203 3.62988 1.66556 2.96138 2.49052 2.96038H6.91318C7.18828 2.96038 7.41128 2.73738 7.41128 2.46228C7.41128 2.18732 7.18828 1.96417 6.91318 1.96417H2.49052C1.11565 1.96572 0.00154412 3.07982 0 4.45469V17.435C0.00154412 18.8098 1.11565 19.9239 2.49052 19.9255H16.4668C17.8416 19.9239 18.9558 18.8098 18.9573 17.435V13.0122C18.9573 12.737 18.7343 12.5141 18.4592 12.5141Z" fill="#45A9EA"/>
<path d="M18.7597 0.682526C17.8844 -0.192841 16.4651 -0.192841 15.5898 0.682526L6.70324 9.56904C6.64241 9.62986 6.59837 9.70541 6.57542 9.78831L5.40682 14.0072C5.38324 14.0922 5.38263 14.1819 5.40505 14.2671C5.42748 14.3524 5.47213 14.4302 5.53446 14.4925C5.59679 14.5549 5.67455 14.5995 5.7598 14.622C5.84505 14.6444 5.93474 14.6439 6.01969 14.6203L10.2386 13.4515C10.3215 13.4286 10.3971 13.3845 10.4579 13.3237L19.3442 4.43703C20.2182 3.56102 20.2182 2.14302 19.3442 1.26705L18.7597 0.682526ZM7.78855 9.89281L15.0615 2.6197L17.4071 4.96527L10.134 12.2384L7.78855 9.89281ZM7.32004 10.833L9.1939 12.7071L6.60187 13.4253L7.32004 10.833ZM18.6399 3.73266L18.1116 4.26085L15.7658 1.91508L16.2943 1.38684C16.7806 0.900596 17.569 0.900596 18.0552 1.38684L18.6399 1.97132C19.1253 2.45817 19.1253 3.24602 18.6399 3.73266Z" fill="#45A9EA"/>
</g>
<defs>
<clipPath id="clip0_1_819">
<rect width="20" height="20" fill="white"/>
</clipPath>
</defs>
</svg>
